<?xml version="1.0" standalone="no"?>
<!DOCTYPE svg PUBLIC "-//W3C//DTD SVG 20010904//EN"
 "http://www.w3.org/TR/2001/REC-SVG-20010904/DTD/svg10.dtd">
<svg version="1.0" xmlns="http://www.w3.org/2000/svg"
 width="916.000000pt" height="916.000000pt" viewBox="0 0 916.000000 916.000000"
 preserveAspectRatio="xMidYMid meet">
<metadata>
Created by potrace 1.14, written by Peter Selinger 2001-2017
</metadata>
<g transform="translate(0.000000,916.000000) scale(0.100000,-0.100000)"
fill="#000000" stroke="none">
<path d="M4116 8402 c-3 -2 -31 -6 -63 -8 -57 -3 -139 -13 -178 -20 -11 -3
-33 -6 -50 -9 -16 -2 -43 -7 -60 -10 -16 -3 -40 -8 -53 -10 -12 -2 -30 -6 -40
-9 -9 -3 -28 -7 -42 -10 -14 -3 -65 -17 -115 -31 -49 -14 -97 -28 -105 -30 -8
-2 -16 -4 -17 -5 -2 -2 -7 -4 -13 -5 -5 -1 -13 -4 -17 -5 -5 -1 -11 -2 -15 -1
-5 0 -8 -3 -8 -9 0 -6 -3 -9 -7 -8 -10 3 -74 -19 -128 -42 -138 -60 -190 -84
-193 -92 -2 -4 -11 -8 -21 -8 -9 0 -25 -6 -36 -13 -11 -8 -51 -31 -90 -52 -38
-21 -89 -50 -113 -66 -24 -16 -45 -29 -48 -29 -7 0 -77 -53 -86 -65 -4 -5 -8
-6 -8 -2 0 5 -6 2 -14 -5 -7 -7 -24 -20 -36 -28 -32 -21 -182 -141 -220 -176
-71 -63 -267 -262 -310 -313 -25 -30 -51 -60 -58 -67 -6 -7 -12 -17 -12 -23 0
-6 -4 -11 -9 -11 -5 0 -19 -16 -31 -35 -12 -20 -27 -41 -34 -48 -7 -6 -38 -50
-69 -97 -31 -47 -60 -89 -65 -95 -4 -5 -15 -25 -22 -42 -8 -18 -18 -33 -22
-33 -5 0 -8 -7 -8 -15 0 -8 -5 -15 -12 -15 -6 0 -8 -3 -5 -6 4 -4 -2 -19 -12
-33 -16 -23 -89 -171 -134 -271 -43 -97 -142 -387 -139 -407 1 -2 -4 -17 -9
-35 -6 -18 -12 -44 -15 -58 -3 -14 -9 -38 -14 -55 -5 -16 -12 -50 -15 -75 -3
-25 -9 -54 -12 -64 -3 -11 -7 -38 -9 -60 -2 -23 -5 -51 -8 -64 -20 -93 -28
-511 -12 -672 5 -47 9 -99 10 -116 2 -17 5 -35 7 -40 3 -5 4 -15 3 -21 -1 -7
-2 -17 -3 -23 0 -5 -13 -16 -28 -24 -16 -8 -39 -24 -53 -36 -14 -12 -37 -32
-51 -44 -38 -33 -104 -134 -122 -187 -26 -77 -43 -229 -26 -229 5 0 6 -6 3
-13 -3 -8 3 -34 13 -59 35 -87 81 -125 196 -162 17 -5 15 -10 -17 -44 -52 -55
-106 -141 -121 -192 -1 -3 -5 -14 -10 -24 -10 -23 -11 -71 -2 -106 6 -25 63
-67 82 -62 5 2 30 5 55 7 25 1 93 21 152 42 59 22 106 37 106 34 -1 -3 3 -17
9 -31 34 -81 63 -154 63 -159 0 -4 -12 -7 -27 -7 -44 -2 -154 -57 -195 -98
-88 -87 -118 -228 -68 -326 21 -42 115 -124 131 -114 5 3 9 2 9 -3 0 -4 35
-19 78 -33 42 -13 88 -31 102 -40 13 -8 24 -13 25 -11 0 2 9 1 21 -3 34 -10
43 -44 48 -171 3 -66 11 -138 17 -160 7 -22 12 -43 11 -47 -1 -5 3 -8 9 -8 5
0 8 -4 5 -9 -9 -15 66 -87 114 -109 61 -28 209 -29 260 -2 11 6 20 8 20 5 0
-3 9 -1 21 5 17 10 24 7 44 -14 13 -14 22 -26 20 -26 -3 0 28 -34 68 -75 40
-41 76 -75 80 -75 3 0 20 -13 37 -28 26 -25 185 -126 200 -127 3 -1 32 -14 65
-29 100 -47 297 -110 375 -121 14 -2 45 -8 70 -14 25 -5 77 -13 115 -16 39 -4
84 -9 100 -12 48 -8 473 -7 555 2 41 4 91 9 110 10 19 2 35 4 35 5 0 1 16 4
35 5 19 2 51 5 70 8 19 3 58 8 85 12 28 3 64 10 80 15 17 5 46 11 65 14 19 3
47 7 63 10 15 3 37 8 50 10 91 17 347 84 487 128 52 17 100 31 105 33 6 1 17
5 25 8 8 4 38 14 65 22 28 9 57 19 65 22 8 4 18 7 23 8 4 2 9 4 12 5 3 1 8 3
13 5 4 1 20 7 35 13 16 7 34 12 41 12 6 0 17 5 24 12 8 8 14 4 22 -18 6 -16
10 -29 9 -29 -1 0 4 -11 11 -25 8 -14 13 -28 12 -32 -1 -5 2 -8 7 -8 5 0 12
-9 16 -19 6 -19 70 -89 115 -125 41 -33 142 -68 211 -73 200 -15 374 102 439
295 48 145 15 260 -93 322 l-48 28 48 23 c26 12 69 35 95 50 25 15 49 25 52
22 3 -4 6 -2 6 4 0 6 14 16 30 23 17 7 30 17 30 23 0 6 3 8 6 4 4 -3 31 9 60
28 30 19 58 35 63 35 5 0 16 6 23 13 7 7 42 31 78 52 36 22 100 63 143 92 43
29 82 53 86 53 5 0 11 7 15 15 3 8 10 15 16 15 5 0 31 16 57 36 27 20 61 45
77 57 263 194 509 431 664 640 29 40 60 80 68 90 7 9 10 17 6 17 -4 0 -2 4 3
8 10 7 25 31 54 87 9 16 18 32 21 35 7 6 61 121 64 135 2 6 10 28 20 50 9 21
19 48 21 60 2 11 4 20 5 20 4 0 31 116 37 160 14 95 5 342 -14 400 -4 11 -7
22 -8 25 0 3 -6 24 -14 47 -13 39 -12 42 9 65 49 51 110 160 127 227 11 46 12
202 1 229 -24 60 -33 79 -56 110 -26 36 -24 44 11 49 121 18 151 108 79 242
-35 65 -146 191 -169 191 -7 0 -13 3 -13 8 0 4 -18 18 -40 32 l-41 25 6 63
c17 195 -116 467 -276 564 -59 36 -158 67 -237 73 -91 8 -86 8 -92 6 -5 -2
-86 -9 -140 -12 -45 -3 -48 0 -66 54 -9 28 -28 69 -41 89 -12 21 -23 42 -23
48 0 5 -4 10 -10 10 -5 0 -10 6 -10 13 0 7 -9 23 -20 35 -11 12 -20 24 -20 27
0 8 -129 185 -177 242 -10 12 -34 41 -53 64 -61 75 -267 279 -273 272 -4 -3
-7 1 -7 10 0 9 -3 17 -7 17 -5 0 -24 14 -43 30 -19 17 -56 47 -82 67 -27 21
-48 41 -48 46 0 4 -4 5 -10 2 -5 -3 -10 -2 -10 2 0 5 -18 19 -40 33 -22 14
-40 29 -40 34 0 5 -3 7 -6 3 -3 -3 -18 5 -32 19 -15 13 -30 24 -33 24 -3 0
-37 20 -75 45 -37 25 -74 45 -81 45 -7 0 -13 4 -13 9 0 5 -12 14 -27 20 -16 6
-55 25 -88 43 -136 74 -368 168 -515 209 -25 7 -47 13 -50 14 -3 1 -18 5 -35
9 -16 4 -37 10 -45 13 -8 4 -19 7 -25 7 -5 1 -35 7 -65 14 -30 6 -66 14 -80
16 -14 3 -34 7 -45 9 -11 3 -42 8 -70 11 -27 4 -61 9 -75 11 -75 15 -582 30
-594 17z"/>
<path d="M4008 945 c-2 -2 -100 -6 -218 -10 -277 -9 -505 -19 -650 -31 -30 -2
-89 -6 -130 -9 -41 -3 -100 -8 -130 -10 -30 -3 -84 -7 -120 -10 -36 -3 -76 -7
-90 -10 -14 -2 -56 -7 -95 -10 -38 -4 -83 -9 -100 -12 -16 -3 -41 -6 -55 -8
-97 -10 -224 -29 -310 -47 -30 -6 -66 -13 -80 -15 -44 -8 -54 -10 -100 -22
-224 -61 -304 -120 -249 -187 13 -16 122 -69 164 -80 6 -1 30 -7 55 -14 75
-19 124 -31 147 -34 12 -2 34 -7 50 -10 28 -6 45 -9 118 -21 22 -4 49 -8 60
-10 11 -2 43 -6 70 -9 28 -4 61 -9 75 -11 14 -2 52 -7 85 -11 33 -3 71 -8 85
-9 48 -6 146 -16 205 -20 33 -3 89 -8 125 -11 36 -3 85 -7 110 -9 25 -1 81 -6
125 -9 113 -9 286 -18 381 -20 44 -1 85 -6 92 -10 7 -4 12 -2 12 4 0 6 5 8 12
4 18 -11 319 -17 933 -17 680 0 865 4 857 18 -4 6 -1 6 9 0 8 -6 25 -9 39 -8
14 1 70 4 125 7 143 6 332 16 390 21 28 2 86 7 130 10 74 5 124 9 245 21 25 2
72 6 105 9 33 3 78 8 100 11 82 10 111 13 155 19 25 4 63 8 85 11 22 2 51 6
65 9 26 6 74 13 125 20 17 2 30 4 30 5 0 2 14 5 65 14 19 4 40 8 45 10 6 1 37
8 70 15 33 7 66 18 73 23 6 6 12 8 12 5 0 -9 118 40 149 62 109 78 -17 159
-349 227 -136 28 -139 29 -220 40 -88 11 -95 12 -95 14 0 1 -18 3 -40 5 -22 3
-56 7 -75 9 -19 3 -64 8 -100 11 -36 4 -78 9 -95 11 -16 2 -61 6 -100 9 -38 2
-81 7 -95 9 -14 3 -70 8 -125 11 -55 3 -122 8 -150 10 -77 6 -384 22 -580 31
-142 6 -1421 14 -1427 9z"/>
</g>
</svg>
